<svg xmlns="http://www.w3.org/2000/svg" viewBox="0 0 208.09 89.82"><defs><style>.a{fill:#fff;}</style></defs><title>Text White</title><path class="a" d="M56.06,43.17c.25,0,.25-.16.29-.26a29.31,29.31,0,0,1,7.83-12,4.86,4.86,0,0,1,2.25-1.13,1.34,1.34,0,0,1,1.65.92,8.22,8.22,0,0,1,.61,3.26,35,35,0,0,1-.4,4.09,6.88,6.88,0,0,0,3.32-.76,7,7,0,0,0,1.67-.92,3.84,3.84,0,0,0,1-1.67c.44-1.23.67-2.52,1.12-3.76a28.49,28.49,0,0,0,1.36-4.16,13.77,13.77,0,0,1,.57-1.46c.12-.39,0-.43-.25-.54l-2.76-1A5.8,5.8,0,0,0,72,23.56c-.33,0-.73.15-1-.18-.1-.12.7-1,1-1a6.74,6.74,0,0,1,3.75.06c.24.07.48.17.68,0s.29,0,.39,0a2.12,2.12,0,0,0,1.2.31.34.34,0,0,0,.45-.28c.29-1.18.89-2.23,1.28-3.37A1.49,1.49,0,0,1,81.14,18a1.67,1.67,0,0,1,1.24,1.42,3.53,3.53,0,0,1-.21,1.51c-.18.58-.36,1.15-.52,1.73s.1.61.53.54A5.92,5.92,0,0,1,83.51,23c.37,0,.82-.09.93.43a1,1,0,0,1-.61,1.14,5.09,5.09,0,0,1-2.19.54.71.71,0,0,0-.79.62c-.63,2.14-1.24,4.28-1.94,6.4s-1.24,4.21-1.8,6.33a85.17,85.17,0,0,0-2.16,10,13.19,13.19,0,0,0-.27,2.66c0,.23-.14.56.14.66s.43-.18.61-.34a17.06,17.06,0,0,0,2.42-2.94c1.59-2.18,3.09-4.43,4.56-6.69.92-1.41,1.75-2.87,2.76-4.22a.91.91,0,0,0,.14-.44A29.31,29.31,0,0,1,88.25,29a1.43,1.43,0,0,1,2-.62,2.07,2.07,0,0,1,1,2.82,13.21,13.21,0,0,0-.94,2.33c-.2,1.07-.84,2-.81,3.13s-.56,2.25-.47,3.43c.06.72,0,1.43.06,2.15a4.73,4.73,0,0,0,.14,1c.18.67.35,1.45,1.14,1.6s1.08-.58,1.41-1.12c.6-1,1.18-2,1.76-3a12.1,12.1,0,0,0,1-3.59,13.27,13.27,0,0,1,1.29-3.5c.41-.77,1-.88,1.72-.39,1.2.81,1.3.89.83,2.28a23.63,23.63,0,0,0-1,5.37,8.11,8.11,0,0,0,.15,3.82c.09.22.06.55.35.59s.42-.22.55-.43a9.71,9.71,0,0,0,.86-1.36c.56-1.28,1.23-2.52,1.86-3.77A23.57,23.57,0,0,1,102.53,37a.61.61,0,0,0,0-.81,7.12,7.12,0,0,1-1.17-3.29,6.56,6.56,0,0,1,.75-4,2.56,2.56,0,0,1,2.51-1.57,1,1,0,0,1,1,.62,3,3,0,0,1,.35,1.75,13.89,13.89,0,0,1-.76,4,.47.47,0,0,0,.18.68A7.55,7.55,0,0,0,108,35.49c.11,0,.27,0,.32,0,.71.8,1.7,1.41,1.67,2.69a15.71,15.71,0,0,1-.67,4c-.82,2.85-2.14,5.59-2.16,8.64a1.9,1.9,0,0,0,0,.34c.11.65.5.81,1,.42a7,7,0,0,0,1.75-2.51c1-1.87,1.92-3.77,2.89-5.65a9.16,9.16,0,0,0,.62-2.46,20.82,20.82,0,0,1,3.8-9.11,4.75,4.75,0,0,1,3-1.9c.42-.07.74-.37,1.21-.31a3.46,3.46,0,0,1,3,3.83,9.22,9.22,0,0,1-.69,3.34c-1.2,2.28-2.75,4.32-5.59,4.7-.64.08-.9.33-.92,1a9,9,0,0,1-.2,1.25,16,16,0,0,0-.31,5.72c.14.91.57,1.18,1.47,1.24,1.8.12,2.93-1,4-2.12.62-.68,1.53-1.21,1.69-2.26,2.32-2.93,3.59-6.44,5.22-9.75a8.88,8.88,0,0,0,1-2,.51.51,0,0,1,.64-.36c.32.08.24.38.21.62a1.43,1.43,0,0,1-.12.45c-.95,2.13-1.81,4.31-2.89,6.38a45.27,45.27,0,0,1-4.11,7.06,17.84,17.84,0,0,1-2.54,2.67,5.5,5.5,0,0,1-3.7,1.4,1.61,1.61,0,0,1-.65-.13,5.56,5.56,0,0,1-3.72-4.36c-.14-.92-.21-1.85-.3-2.8a14.64,14.64,0,0,1-1.08,2.08c-.31.68-.75,1.36-1.08,2a31.94,31.94,0,0,1-1.84,3.17,2.32,2.32,0,0,1-3.86.32,6.11,6.11,0,0,1-1.19-3.88c.08-2.95,1.27-5.58,2.19-8.3.2-.59.39-1.18.55-1.79a.88.88,0,0,0-.67-1.24c-.61-.21-1.23-.39-1.84-.6a.35.35,0,0,0-.5.16,7.52,7.52,0,0,0-.53.85,48,48,0,0,1-2.26,4.54,16.87,16.87,0,0,1-2.85,4.51,2.25,2.25,0,0,1-2.2.92,1.89,1.89,0,0,1-1.57-1.44,16.85,16.85,0,0,1-.34-2.65c0-.55.33-1.09.06-1.8a21.39,21.39,0,0,1-2.4,3.34,4.3,4.3,0,0,1-1.95,1.36,4.47,4.47,0,0,1-1.31.25,2.64,2.64,0,0,1-2.74-1.91A9.78,9.78,0,0,1,84.9,42a7.33,7.33,0,0,0-.13-1.67c-.9,1.4-1.79,2.8-2.7,4.18-1.7,2.57-3.43,5.13-5.35,7.55a5.87,5.87,0,0,1-3,2.31,1.55,1.55,0,0,1-2.15-1.34,20.87,20.87,0,0,1,0-6.36c.12-.79.15-1.59.26-2.38.17-1.31.72-2.52.81-3.85,0-.71.41-1.42.5-2.22l-2.42,1a3.08,3.08,0,0,1-1.63.29c-.52-.07-.93.41-1.48.28-.14,0-.16.25-.22.39A11.7,11.7,0,0,1,63,45.77a1.06,1.06,0,0,1-.75.24,1.05,1.05,0,0,0-.8.16c-.4.24-.77-.1-1.07-.34a3.92,3.92,0,0,1-.72-3.6,5.08,5.08,0,0,1,.7-1,10.41,10.41,0,0,1,3.52-2.61l.32-.1c1-.21,1-.32,1.25-1.31.19-.83.43-1.66.62-2.5a7.18,7.18,0,0,0,.08-2.53c0-.25,0-.55-.38-.65a.66.66,0,0,0-.76.29c-.33.42-.85.58-1.24.95a21,21,0,0,0-4.45,6.77,47.48,47.48,0,0,0-3,8.51c-.37,1.46-.48,3-.83,4.46A20.49,20.49,0,0,1,55,55.87a5.36,5.36,0,0,0-.16,1.32,11,11,0,0,1-1,3.91c-.22.39-.45.44-.92.34-1.66-.34-2.35-1.49-2.52-3.31A45.35,45.35,0,0,1,51,47a2.26,2.26,0,0,0,.13-1.17,8.52,8.52,0,0,0-.86,1.47c-.7,1.25-1.45,2.53-2.89,2.92a2.91,2.91,0,0,1-2.45.06,3.69,3.69,0,0,0-.86-.38,2.67,2.67,0,0,1-1.76-1.52,11.76,11.76,0,0,1-.9-6.41c.07-.71.21-1.41.32-2.15a.75.75,0,0,0-.6.47A21.63,21.63,0,0,1,38.58,44a10.94,10.94,0,0,1-3.07,2.84,6.1,6.1,0,0,1-.72.37,2.29,2.29,0,0,1-3.23-1c-.31-.45-.58-.93-.92-1.48a34.2,34.2,0,0,1-1.87,3.5,10.79,10.79,0,0,1-1.46,2.18,6,6,0,0,0-.74,1.14A25.12,25.12,0,0,1,25,53.7,12.72,12.72,0,0,1,22.89,56a16,16,0,0,1-5.4,3.47,11.88,11.88,0,0,1-3.71.62,6.91,6.91,0,0,1-4.41-1.5,9.83,9.83,0,0,1-3.08-3.49,18.48,18.48,0,0,1-1.95-6.2,35.74,35.74,0,0,1,.46-9.41c.19-1,.46-2.08.71-3.12a64.78,64.78,0,0,1,3-8.9c.58-1.43,1.24-2.84,1.91-4.21S12,20.35,12.82,19a59.2,59.2,0,0,1,6.84-9.41A18.34,18.34,0,0,1,25.23,5a5.22,5.22,0,0,1,4.2-.37,1.81,1.81,0,0,1,1.06,1A6.53,6.53,0,0,1,31.12,9a19.12,19.12,0,0,1-.86,5,11.05,11.05,0,0,1-1.08,2.37c-.19.29-.34.85-.8.55a.94.94,0,0,1-.21-1.22c1-1.28,1.08-2.84,1.51-4.29a7.16,7.16,0,0,0-.11-3.76,1.62,1.62,0,0,0-.75-1.06.8.8,0,0,0-1.05.06,22.5,22.5,0,0,0-2,1.39,32.1,32.1,0,0,0-5.43,6.43,72.17,72.17,0,0,0-10.1,24,38,38,0,0,0-.65,4.42c-.13,1.13.25,2.25-.1,3.36a.91.91,0,0,0,0,.33A14.9,14.9,0,0,0,11,52a6.88,6.88,0,0,0,4.2,3.39,6.47,6.47,0,0,0,4.62-.4,14.74,14.74,0,0,0,5.64-4.91A47.37,47.37,0,0,0,29.91,43a7.4,7.4,0,0,0,.88-2.48A15.29,15.29,0,0,1,32,36.23a23.29,23.29,0,0,1,2.14-3.88,24.52,24.52,0,0,1,2.3-3,6.46,6.46,0,0,1,3.78-2.49,2.84,2.84,0,0,1,3.16,1.35c.79,1.21.8,1.21,1.56,0a2.28,2.28,0,0,1,1.84-1.27,1.24,1.24,0,0,1,1.34.77,2.72,2.72,0,0,1,.22,1.83c-.41,1.62-.88,3.22-1.32,4.83a40,40,0,0,0-1.91,10.45,5.35,5.35,0,0,0,.28,2.31c.72,1.59,2.16,1.86,3.24.49a15.33,15.33,0,0,0,1.81-2.88A35.29,35.29,0,0,0,53,37.33a28.7,28.7,0,0,1,2-6.24A.13.13,0,0,1,55,31c.27-.64,1-1.29,1.41-1.17.71.22.75.89.85,1.47a16.93,16.93,0,0,1-.41,6.18c-.22,1.06-.29,2.13-.48,3.19C56.18,41.5,56.19,42.33,56.06,43.17Zm-23,1.17c0,1.18,0,1.16,1.17,1.25a2.53,2.53,0,0,0,1.85-1,18.19,18.19,0,0,0,3.24-4.16c1.37-2.24,3-4.39,3.57-7,0-.08.11-.14.16-.21a2.66,2.66,0,0,0-.2-3.18c-.15-.14-.3-.28-.53-.19a6.69,6.69,0,0,0-1.73.82,19.69,19.69,0,0,0-6.65,9.82A13.18,13.18,0,0,0,33.05,44.34Zm90.21-10.5a4.18,4.18,0,0,0-.3-1.57c-.1-.25-.26-.52-.6-.28a4.5,4.5,0,0,0-1.45,1.26A40.06,40.06,0,0,0,118,39a2.68,2.68,0,0,0-.25,1c0,.12,0,.38.14.3.42-.22.93.1,1.33-.27s.75-.49,1.09-.76A7.37,7.37,0,0,0,123.26,33.84ZM104.11,33c.78-1.11.58-2.24.73-3.29,0-.16-.17-.27-.32-.28a.4.4,0,0,0-.46.38A8.19,8.19,0,0,0,104.11,33ZM63.57,41a3.45,3.45,0,0,0-2.19,1.88A3.27,3.27,0,0,0,63.57,41Z"/><path class="a" d="M157.6,47.8a15.76,15.76,0,0,1-.1,1.94,35,35,0,0,0,.39,9.8,6,6,0,0,0,1,2.52c.3.38.46.37.73,0a30,30,0,0,0,3.08-6c.16-.4.25-1.07.76-.92s.22.81.09,1.18a38.32,38.32,0,0,1-3.24,7.18,3.37,3.37,0,0,1-2.23,1.67c-1.65.29-2.66-.69-3.52-1.85a11.08,11.08,0,0,1-1.28-3.56,19.79,19.79,0,0,1-.47-5,12.09,12.09,0,0,1,.1-2.87,15.88,15.88,0,0,0,.08-2.51,66.66,66.66,0,0,1,.78-7.85c.06-.33,0-.67,0-1s-.1-.46-.41-.55a39.42,39.42,0,0,1-4.51-1.44c-.44-.18-1,.19-1.46,0-.09,0-.15.17-.19.31-.6,2.42-1.13,4.86-1.79,7.27a12.41,12.41,0,0,1-2.1,4.79,1.36,1.36,0,0,1-2.44-.21,7.28,7.28,0,0,1-.75-4.35,13.64,13.64,0,0,1,1.29-4.67,10.32,10.32,0,0,1,1.66-2.4c.46-.53,1.2-.81,1.42-1.55a.24.24,0,0,1,.27-.17c.83.06,1-.56,1.24-1.16a30,30,0,0,0,.94-3.06c.37-1.61,1-3.16,1.45-4.72A100.17,100.17,0,0,1,152.08,19a14.11,14.11,0,0,0,1.41-3.32,4.19,4.19,0,0,1,.48-1.17c.75-1.52,1.43-3.1,2.3-4.56,1.37-2.33,2.75-4.68,4.94-6.38a1.88,1.88,0,0,1,2-.41,1.73,1.73,0,0,1,1,1.8,3.28,3.28,0,0,1-.12,1c-.67,2.06-1,4.19-1.53,6.29-.93,3.93-1.48,7.94-2.16,11.91-.34,2-.67,4.09-.95,6.13-.35,2.5-.68,5-1,7.51,0,.2-.11.47.21.55s.54.22.74,0a1.49,1.49,0,0,1,.84-.49.9.9,0,0,0,.56-.55,1.06,1.06,0,0,1,.47-.55c.21-.11.44-.28.69-.11a.64.64,0,0,1,.23.72,3.38,3.38,0,0,1-.75,1.47,5.28,5.28,0,0,1-1.91,1.43.79.79,0,0,1-.65.06c-.43-.22-.55-.08-.63.38C158,43,157.82,45.42,157.6,47.8Zm2.92-41.19a1.92,1.92,0,0,0-.53.67c-.88,1.42-1.79,2.82-2.56,4.31-1.41,2.71-2.74,5.45-3.91,8.26-.59,1.44-1.16,2.89-1.77,4.31s-1.05,3-1.6,4.46a13.59,13.59,0,0,0-.65,1.89,16.31,16.31,0,0,1-.78,2.64c-.43,1.05-.46,2.2-1,3.33a13.52,13.52,0,0,1,5.36,1.46,2,2,0,0,0,.65.13c.39,0,.62-.13.6-.51a13.35,13.35,0,0,1,.31-2.45,33.75,33.75,0,0,1,.69-4.41,33.55,33.55,0,0,0,.6-3.54c.31-1.77.58-3.56.94-5.32s.74-3.71,1.19-5.55c.25-1,.47-2.07.66-3.11.29-1.6,1.05-3.08,1.2-4.72a.53.53,0,0,1,.12-.3,2.21,2.21,0,0,0,.54-1.47.64.64,0,0,0,0-.15C160.56,6.48,160.55,6.56,160.52,6.61Zm-19,41a5.39,5.39,0,0,0,.09,1.59c0,.3,0,.72.38.76s.5-.33.61-.63l.12-.38c.54-1.5.74-3.08,1.21-4.58s.7-3.22,1.28-4.76c0-.12.12-.28,0-.37s-.25,0-.36.09a7.54,7.54,0,0,0-2.76,4.09C141.82,44.84,141.19,46.24,141.53,47.62Zm17.06-18.37c0-.16,0-.29.06-.42a.45.45,0,0,0-.27-.47.15.15,0,0,0-.21.09c-.08.19,0,.37.16.43S158.35,29.2,158.59,29.25ZM154.86,15.5a.91.91,0,0,0,.33-.79c0-.09-.14-.15-.2-.07A.7.7,0,0,0,154.86,15.5Z"/><path class="a" d="M171.58,40.23c-.53.87-1,1.61-1.46,2.37A11.63,11.63,0,0,1,168,45.25a2.51,2.51,0,0,1-3.79-1.13,17.27,17.27,0,0,1,1.49-11.58A2.7,2.7,0,0,1,166,32c.6-.81,1.3-1.08,2-.77.91.39,1.73,1.49,1.47,2.25-.21.59-.5,1.17-.77,1.75a13,13,0,0,0-1.18,5.5,11.46,11.46,0,0,0,.16,2.45A3.35,3.35,0,0,0,169,41.9a45.42,45.42,0,0,0,2.41-4.38c.71-1.46,1.12-3.1,2.31-4.32.36-.37.55-.34.92-.06a2.73,2.73,0,0,1,1.11,3.14,64.59,64.59,0,0,0-1.21,7.45,21.45,21.45,0,0,0,.09,3.93,3.74,3.74,0,0,0,.86,1.92c.23.31.48.32.77,0A5,5,0,0,0,177.35,48a38,38,0,0,0,1.92-7.36,2.78,2.78,0,0,0-.6-2.39,5.34,5.34,0,0,1-.63-3.81,5.81,5.81,0,0,1,1-3.09c.34-.44.67-.54,1.13-.24a2.34,2.34,0,0,1,1.05,2.18,34.32,34.32,0,0,1-.27,5.17.5.5,0,0,0,.31.59,1.39,1.39,0,0,0,1,.24,11.27,11.27,0,0,0,2.42-.73,1.11,1.11,0,0,0,.57-.78,21.83,21.83,0,0,1,2.59-5.4A6.36,6.36,0,0,1,192,29.67a2.26,2.26,0,0,1,2.24.78,3.91,3.91,0,0,1,1,2.76,12.33,12.33,0,0,1-.51,3,10,10,0,0,1-1.68,2.94,6.14,6.14,0,0,1-4.18,2.41c-.47.06-.71.22-.77.73-.1.85-.33,1.67-.46,2.5a14.19,14.19,0,0,0,0,4.95,1.23,1.23,0,0,0,1.3,1c1.94.13,3.14-1.09,4.3-2.34a15.1,15.1,0,0,0,2.06-2.6c.69-1.21,1.4-2.41,2-3.66,1.09-2.24,2.1-4.52,3.31-6.7a4,4,0,0,0,.27-.76.57.57,0,0,1,.7-.46c.38.09.3.47.19.73-.53,1.25-1.06,2.5-1.65,3.72-1,2-1.89,4-3,6a25.27,25.27,0,0,1-4.33,6.06,18.65,18.65,0,0,1-2.1,1.49c-.74.55-1.52.28-2.23.53a1.15,1.15,0,0,1-.78-.14A5.66,5.66,0,0,1,184,47.69a22.77,22.77,0,0,1,.52-7.45c0-.06,0-.13,0-.26a3.56,3.56,0,0,0-.57.16,4.89,4.89,0,0,1-2.88.15c-.24,0-.41-.07-.41.23a21.17,21.17,0,0,1-.78,4.26A20.47,20.47,0,0,1,178.12,50a4.12,4.12,0,0,1-2.66,2.28,2.28,2.28,0,0,1-2.7-1.23,11,11,0,0,1-1.35-4.23,19.23,19.23,0,0,1,.22-5.14A2.75,2.75,0,0,0,171.58,40.23Zm17.21.07c.37-.39.82,0,1.22-.25a8.5,8.5,0,0,0,3.66-3.95,5,5,0,0,0,.28-3.71c-.17-.47-.4-.61-.89-.27a7.1,7.1,0,0,0-1.69,2,33.49,33.49,0,0,0-2.45,4.95A1.68,1.68,0,0,0,188.79,40.3Zm-8.7-6.63c0-.21-.07-.64-.43-.69s-.36.4-.44.65a6.49,6.49,0,0,0,.11,3.55c0,.14,0,.35.23.34s.22-.22.22-.36C179.76,36,180,34.92,180.09,33.67Zm8.4,1.56c.21.28.13.81.56.73.23,0,.33-.42.13-.8C189,35.29,188.73,35.9,188.49,35.23ZM167,37.65a1,1,0,0,0-.5-.62s-.17.14-.16.16c.16.24.13.63.49.71C167,37.93,167,37.78,167,37.65Zm.82-3.95c-.14,0-.21.11-.2.23a.5.5,0,0,0,.26.42c.12,0,.21-.07.21-.18S168,33.83,167.86,33.7Z"/><path class="a" d="M47.27,75.51c0,1.62,0,3.25,0,4.87s-.09,3.26-.11,4.89c0,.41-.1.59-.53.53a2.41,2.41,0,0,0-.6,0c-.37,0-.44-.13-.42-.47.13-3.84.26-7.68.36-11.52,0-.58.15-.81.79-.78,1.08.07,1.08,0,1.47,1,.53,1.39,1.06,2.78,1.65,4.31l1.28-3.29c.11-.29.21-.59.32-.88.45-1.2.45-1.18,1.77-1.18.43,0,.52.12.53.52.07,2.52.16,5,.25,7.57,0,1.38.07,2.77.14,4.15,0,.41-.07.59-.5.52a1.34,1.34,0,0,0-.4,0c-.46.06-.64-.06-.65-.6,0-3.15-.15-6.3-.23-9.45a.35.35,0,0,0-.15-.29c-.77,2-1.53,4-2.36,6.12-.81-2.1-1.57-4.09-2.34-6.08Z"/><path class="a" d="M150,79.39c0-1.92,0-3.85,0-5.77,0-.48.13-.6.6-.58,1,0,2,0,3,0A3.58,3.58,0,0,1,155,79.88c-.43.17-.28.33-.15.58.82,1.5,1.65,3,2.46,4.51.12.22.45.56-.08.66-.38.07-.79.78-1.21,0-.88-1.67-1.8-3.33-2.71-5a1.83,1.83,0,0,0-1.76-.45c-.18.13-.09.33-.09.5,0,1.52,0,3,0,4.56,0,.59-.27.6-.68.57s-.84.17-.82-.57C150,83.28,150,81.34,150,79.39Zm1.46-2.84h0c0,.13,0,.27,0,.4,0,.66-.29,1.56.14,1.91s1.29.11,2,.1a1.83,1.83,0,0,0,1.91-1.55,3.76,3.76,0,0,0,.06-1.46,1.76,1.76,0,0,0-1.81-1.7c-.62,0-1.25,0-1.88,0-.29,0-.38.09-.37.38C151.45,75.25,151.43,75.9,151.43,76.55Z"/><path class="a" d="M105.2,82c0,.79,0,1.57,0,2.35a.71.71,0,0,1-.41.75,5.69,5.69,0,0,1-3.53.79,3.6,3.6,0,0,1-3.05-2.5,11.15,11.15,0,0,1,.1-8.23,3.43,3.43,0,0,1,2.89-2.29,4.18,4.18,0,0,1,3.92,1.71c.2.25.16.38-.13.48a1.05,1.05,0,0,0-.29.17c-.44.37-.72.27-1.1-.18-1.35-1.61-3.26-1.29-4,.68a11,11,0,0,0-.08,7.17,2.51,2.51,0,0,0,3.79,1.45.68.68,0,0,0,.43-.73c0-.94,0-1.88,0-2.81,0-.4-.09-.56-.52-.54-.6,0-1.21,0-1.81,0s-.37-.33-.37-.59-.16-.61.36-.6q1.71,0,3.42,0c.34,0,.35.18.35.42C105.19,80.39,105.2,81.22,105.2,82Z"/><path class="a" d="M75.67,73.08c.72-.24.93.17,1.11.79,1.06,3.78,2.15,7.54,3.23,11.3.07.27.24.63-.26.61s-.93.66-1.17-.2c-.29-1-.58-2.1-.82-3.17a.59.59,0,0,0-.72-.54c-.94,0-1.88,0-2.82,0-.42,0-.57.14-.66.54-.25,1.06-.58,2.11-.83,3.17-.09.4-.26.51-.63.36a1.4,1.4,0,0,0-.39-.1c-.49,0-.55-.22-.41-.69,1.07-3.65,2.1-7.31,3.15-11a1.29,1.29,0,0,0,.08-.26C74.59,73.21,74.92,72.85,75.67,73.08Zm1.58,7.63c-.52-2-1-3.87-1.54-5.78-.6,1.83-1.1,3.67-1.59,5.51-.07.29.13.27.32.27Z"/><path class="a" d="M124.08,79.43c0-1.94,0-3.89,0-5.84,0-.44.12-.56.56-.55q3,0,6,0c.43,0,.54.13.51.53s.06.68-.53.67c-1.47,0-3,0-4.43,0-.52,0-.63.15-.61.64,0,1,0,2,0,3,0,.42.13.54.53.53,1.19,0,2.37,0,3.56,0,.52,0,.5.23.51.59s0,.6-.53.58c-1.16,0-2.33,0-3.49,0-.42,0-.59.08-.58.55q0,2,0,4c0,.41.1.54.52.53,1.5,0,3,0,4.5,0,.46,0,.56.14.55.57s0,.64-.55.63c-2,0-3.94,0-5.91,0-.48,0-.59-.15-.58-.61C124.09,83.28,124.08,81.35,124.08,79.43Z"/><path class="a" d="M178.77,79.12c.92-1.92,1.83-3.84,2.76-5.75.09-.2.1-.58.4-.53a3.26,3.26,0,0,1,1.11.42c.19.12,0,.32-.11.46-1.07,2.18-2.14,4.36-3.23,6.53a2.28,2.28,0,0,0-.25,1.08c0,1.32,0,2.64,0,4,0,.42-.13.52-.53.51-1,0-1.05,0-.94-.94a12.08,12.08,0,0,0-1.84-7.81c-.66-1.06-1.1-2.24-1.68-3.35-.2-.37-.1-.48.25-.61.89-.32.88-.33,1.28.52l2.43,5C178.51,78.82,178.53,79,178.77,79.12Z"/><path class="a" d="M24.85,79.5c0,1.48,0,3,0,4.42,0,.63.18.79.74.7a3.68,3.68,0,0,1,.47,0c.78,0,.8,0,.74.84,0,.26-.11.34-.37.34-1.54,0-3.08,0-4.62,0-.47,0-.35-.32-.34-.55s-.19-.64.33-.63h.13c.46,0,1.07.2,1.36-.09s.1-.94.1-1.42c0-2.75,0-5.49,0-8.24,0-.54-.15-.72-.67-.65-.2,0-.41,0-.6,0-.66.11-.73-.24-.69-.77,0-.31.09-.42.42-.42q2.28,0,4.56,0c.53,0,.35.35.35.59s.2.6-.34.61-1.23-.28-1.51.14-.06,1-.06,1.57C24.85,77.13,24.85,78.32,24.85,79.5Z"/><path class="a" d="M115.45,36.16c.49.66.06.81-.32,1C114.89,36.74,115.41,36.61,115.45,36.16Z"/><path class="a" d="M79.77,21.66c.16.56.16.56-.52.75C79.22,22,79.64,21.93,79.77,21.66Z"/><path class="a" d="M118.37,35.5c-.06.19-.06.45-.32.51s-.27-.13-.25-.25a.61.61,0,0,1,.44-.52C118.34,35.21,118.39,35.36,118.37,35.5Z"/><path class="a" d="M158.59,29.25c-.24-.05-.07-.3-.26-.37s-.24-.24-.16-.43a.15.15,0,0,1,.21-.09.45.45,0,0,1,.27.47C158.64,29,158.61,29.09,158.59,29.25Z"/><path class="a" d="M154.86,15.5a.7.7,0,0,1,.13-.86c.06-.08.18,0,.2.07A.91.91,0,0,1,154.86,15.5Z"/><path class="a" d="M160.52,6.61c0-.05,0-.13.12-.07a.64.64,0,0,1,0,.15Z"/><path class="a" d="M188.49,35.23c.24.67.48.06.69-.07.2.38.1.76-.13.8C188.62,36,188.7,35.51,188.49,35.23Z"/><path class="a" d="M167,37.65c0,.13,0,.28-.17.25-.36-.08-.33-.47-.49-.71,0,0,.15-.17.16-.16A1,1,0,0,1,167,37.65Z"/><path class="a" d="M167.86,33.7c.13.13.28.26.27.47s-.09.23-.21.18a.5.5,0,0,1-.26-.42C167.65,33.81,167.72,33.73,167.86,33.7Z"/><path class="a" d="M135.83,73l.11,0s0,.1-.05.11-.07,0-.11,0Z"/><path class="a" d="M133.14,70.2l-.07.1a1.49,1.49,0,0,1-.14-.12c-.05-.06,0-.09,0-.06Z"/></svg>